<svg xmlns="http://www.w3.org/2000/svg" viewBox="-10 -10 97 97" preserveAspectRatio="none" width="16" height="16">
  <g transform="translate(-1156 -258)">
    <path fill="#00BAFF" d="M1147 263.893c0-7.673 6.22-13.893 13.89-13.893h66.22c7.67 0 13.89 6.22 13.89 13.893v66.214c0 7.673-6.22 13.893-13.89 13.893h-66.22c-7.67 0-13.89-6.22-13.89-13.893Z"/>
    <path fill="#2859C5" d="M1197.73 262.083c-.53.189-1.26.844-2.09 1.878-.41.513-21.96 30.001-22.71 31.086-.38.537-.75 1.306-.86 1.767-.18.786-.01 1.69.5 2.563.14.246 1.36 1.96 2.71 3.809 1.35 1.85 6.4 8.754 11.2 15.342 4.81 6.589 8.96 12.24 9.22 12.558.65.808 1.32 1.449 1.76 1.689l.38.202 7.36.018c7.66.018 8.35.001 9.26-.229 1.96-.498 2.98-1.897 2.36-3.24-.08-.164-4.89-6.796-10.7-14.738-5.81-7.941-10.68-14.608-10.82-14.813-.33-.478-.75-1.36-.87-1.816-.22-.828 0-1.744.67-2.844.13-.205 5.02-6.921 10.88-14.926 5.86-8.004 10.73-14.712 10.83-14.906.25-.487.25-1.09.02-1.599-.45-.954-1.69-1.646-3.29-1.83-.29-.033-3.64-.055-8.04-.054-6.19.002-7.58.017-7.77.083"/>
  </g>
</svg>
