<svg width="671" height="292" xmlns="http://www.w3.org/2000/svg" xmlns:xlink="http://www.w3.org/1999/xlink" xml:space="preserve" overflow="hidden"><defs><clipPath id="clip0"><rect x="336" y="902" width="671" height="292"/></clipPath></defs><g clip-path="url(#clip0)" transform="translate(-336 -902)"><path d="M927.782 902.341C925.595 903.117 922.601 905.811 919.197 910.066 917.508 912.176 828.917 1033.45 825.805 1037.91 824.262 1040.12 822.734 1043.28 822.291 1045.18 821.538 1048.41 822.257 1052.13 824.33 1055.72 824.913 1056.73 829.937 1063.78 835.495 1071.39 841.053 1078.99 861.776 1107.39 881.546 1134.48 901.316 1161.58 918.357 1184.82 919.413 1186.13 922.091 1189.45 924.849 1192.09 926.678 1193.07L928.224 1193.91 958.489 1193.98C989.96 1194.05 992.837 1193.98 996.558 1193.04 1004.62 1190.99 1008.81 1185.24 1006.25 1179.71 1005.94 1179.04 986.142 1151.76 962.255 1119.1 938.368 1086.44 918.352 1059.02 917.773 1058.18 916.432 1056.21 914.703 1052.59 914.211 1050.71 913.32 1047.3 914.209 1043.54 916.972 1039.01 917.487 1038.17 937.612 1010.55 961.695 977.63 985.778 944.711 1005.81 917.123 1006.22 916.324 1007.23 914.322 1007.26 911.843 1006.28 909.749 1004.46 905.825 999.342 902.977 992.757 902.224 991.57 902.089 977.797 901.995 959.719 902 934.282 902.008 928.549 902.069 927.782 902.341" fill="#2859C5" fill-rule="evenodd"/><path d="M346.045 902.355C342.107 903.314 338.666 906.112 337.17 909.573 335.926 912.452 336 903.695 336.001 1047.89 336.001 1162.21 336.053 1182.41 336.346 1183.79 337.291 1188.24 340.734 1191.98 345.177 1193.37L346.903 1193.92 445.709 1193.92 544.514 1193.92 546.241 1193.37C549.562 1192.33 552.464 1189.88 553.95 1186.86 555.472 1183.76 555.447 1184.31 555.371 1156.5 555.348 1148.08 555.325 1139.66 555.302 1131.25L554.655 1129.48C553.147 1125.36 549.807 1122.28 545.696 1121.21 544.465 1120.89 536.548 1120.84 482.617 1120.84L419.323 1120.49C415.067 1119.59 411.54 1116.52 409.965 1112.36L409.423 1110.93C409.382 1077.8 409.341 1044.67 409.3 1011.54 409.259 978.406 409.219 945.276 409.178 912.146L408.619 910.677C407.045 906.539 403.748 903.531 399.634 902.48 397.752 902 397.008 901.987 372.546 902.006 352.406 902.023 347.125 902.092 346.045 902.355M455.551 902.371C451.171 903.44 447.712 906.726 446.165 911.289 445.724 912.592 445.707 915.88 445.645 1013.8L445.582 1114.97 482.238 1114.97 518.893 1114.97 518.893 1014.08C518.893 922.818 518.856 913.052 518.505 911.691 517.424 907.505 514.457 904.291 510.17 902.661L508.719 902.109 482.853 902.065C461.14 902.027 456.756 902.077 455.551 902.371M571.062 902.366C566.706 903.421 563.095 906.821 561.729 911.156L561.186 912.88 561.186 1048.01 561.186 1183.14 561.727 1184.86C563.008 1188.91 566.194 1192.1 570.228 1193.37L571.974 1193.92 597.594 1193.92C625.713 1193.92 624.496 1193.98 627.519 1192.41 630.847 1190.69 633.344 1187.39 634.108 1183.72 634.308 1182.75 634.483 1161.74 634.728 1109.24 634.915 1069.01 635.105 1036.07 635.149 1036.03 635.193 1035.99 660.163 1070.18 690.638 1111.99 732.3 1169.15 746.513 1188.48 747.921 1189.9 750.163 1192.15 752.469 1193.4 755.119 1193.8 756.254 1193.97 765.22 1194.03 781.598 1193.99L806.361 1193.91 807.972 1193.37C811.2 1192.27 814.096 1189.82 815.539 1186.97 817.159 1183.77 817.035 1195.92 816.966 1047.23 816.945 1002.2 816.924 957.175 816.903 912.146L816.344 910.677C814.897 906.871 812.018 904.044 808.199 902.678L806.606 902.109 780.372 902.109 754.139 902.109 752.545 902.678C748.649 904.072 745.79 906.925 744.409 910.799L743.841 912.39C743.8 937.251 743.759 962.112 743.719 986.973 743.678 1011.83 743.637 1036.69 743.596 1061.55L687.941 984.894C628.928 903.606 630.039 905.09 626.874 903.401 624.137 901.94 625.07 901.984 597.604 902.006 577.065 902.023 572.208 902.089 571.062 902.366" fill="#00BAFF" fill-rule="evenodd"/></g></svg>